<?xml version="1.0" standalone="no"?>
<!DOCTYPE svg PUBLIC "-//W3C//DTD SVG 20010904//EN"
 "http://www.w3.org/TR/2001/REC-SVG-20010904/DTD/svg10.dtd">
<svg version="1.0" xmlns="http://www.w3.org/2000/svg"
 width="32.000000pt" height="32.000000pt" viewBox="0 0 32.000000 32.000000"
 preserveAspectRatio="xMidYMid meet">

<g transform="translate(0.000000,32.000000) scale(0.100000,-0.100000)"
fill="#000000" stroke="none">
<path d="M137 273 c-18 -18 -5 -38 25 -39 65 -3 94 -92 42 -133 -36 -28 -70
-26 -100 5 -22 21 -25 31 -20 62 11 67 11 75 -1 79 -17 6 -53 -56 -53 -90 0
-66 56 -120 125 -120 51 0 81 16 105 56 37 60 18 142 -40 172 -30 16 -72 20
-83 8z"/>
<path d="M115 170 c-7 -12 2 -30 16 -30 12 0 12 27 0 35 -5 3 -12 1 -16 -5z"/>
<path d="M175 170 c-4 -6 -3 -16 3 -22 6 -6 12 -6 17 2 4 6 3 16 -3 22 -6 6
-12 6 -17 -2z"/>
</g>
</svg>
